<svg xmlns="http://www.w3.org/2000/svg" viewBox="0 0 256 256" width="256" height="256">
  <!-- 背景圆 -->
  <circle cx="128" cy="128" r="120" fill="#ff5252"/>
  <circle cx="128" cy="128" r="110" fill="#ff8a80"/>
  
  <!-- 触角 -->
  <path d="M90 60 Q80 30 60 40" stroke="#d32f2f" stroke-width="6" fill="none" stroke-linecap="round"/>
  <path d="M166 60 Q176 30 196 40" stroke="#d32f2f" stroke-width="6" fill="none" stroke-linecap="round"/>
  
  <!-- 身体 -->
  <ellipse cx="128" cy="150" rx="60" ry="55" fill="#ff5252"/>
  <ellipse cx="128" cy="145" rx="50" ry="45" fill="#ff8a80"/>
  
  <!-- 头部 -->
  <ellipse cx="128" cy="85" rx="45" ry="40" fill="#ff5252"/>
  <ellipse cx="128" cy="80" rx="38" ry="33" fill="#ff8a80"/>
  
  <!-- 眼睛 -->
  <circle cx="110" cy="75" r="15" fill="white"/>
  <circle cx="146" cy="75" r="15" fill="white"/>
  <circle cx="112" cy="77" r="8" fill="#333"/>
  <circle cx="148" cy="77" r="8" fill="#333"/>
  <!-- 眼神高光 -->
  <circle cx="114" cy="74" r="3" fill="white"/>
  <circle cx="150" cy="74" r="3" fill="white"/>
  
  <!-- 腮红 -->
  <ellipse cx="95" cy="90" rx="10" ry="6" fill="#ffbaba" opacity="0.7"/>
  <ellipse cx="161" cy="90" rx="10" ry="6" fill="#ffbaba" opacity="0.7"/>
  
  <!-- 微笑 -->
  <path d="M115 105 Q128 118 141 105" stroke="#b71c1c" stroke-width="4" fill="none" stroke-linecap="round"/>
  
  <!-- 钳子 -->
  <ellipse cx="65" cy="140" rx="25" ry="30" fill="#ff5252"/>
  <ellipse cx="191" cy="140" rx="25" ry="30" fill="#ff5252"/>
  <ellipse cx="60" cy="115" rx="18" ry="22" fill="#ffab91"/>
  <ellipse cx="196" cy="115" rx="18" ry="22" fill="#ffab91"/>
  
  <!-- 腿 -->
  <line x1="90" y1="185" x2="75" y2="210" stroke="#d32f2f" stroke-width="5" stroke-linecap="round"/>
  <line x1="110" y1="190" x2="100" y2="215" stroke="#d32f2f" stroke-width="5" stroke-linecap="round"/>
  <line x1="166" y1="190" x2="156" y2="215" stroke="#d32f2f" stroke-width="5" stroke-linecap="round"/>
  <line x1="186" y1="185" x2="181" y2="210" stroke="#d32f2f" stroke-width="5" stroke-linecap="round"/>
  
  <!-- 尾巴 -->
  <ellipse cx="100" cy="195" rx="15" ry="10" fill="#d32f2f"/>
  <ellipse cx="128" cy="200" rx="15" ry="10" fill="#d32f2f"/>
  <ellipse cx="156" cy="195" rx="15" ry="10" fill="#d32f2f"/>
</svg>